# Blender v2.79 (sub 0) OBJ File: 'untitled.blend'
# www.blender.org
mtllib untitled.mtl
o Cube
v -1.000000 0.000000 0.000000
v 0.000000 0.000000 -1.000000
v 1.000000 0.000000 0.000000
v 0.000000 0.000000 1.000000
v 0.000000 -1.000000 0.000000
v 0.000000 1.000000 0.000000
v -1.000000 -1.000000 0.000000
v -1.000000 0.000000 1.000000
v -1.000000 1.000000 0.000000
v -1.000000 0.000000 -1.000000
v 0.000000 -1.000000 -1.000000
v 0.000000 1.000000 -1.000000
v 1.000000 0.000000 -1.000000
v 1.000000 -1.000000 0.000000
v 1.000000 1.000000 0.000000
v 1.000000 0.000000 1.000000
v 0.000000 -1.000000 1.000000
v 0.000000 1.000000 1.000000
v -1.000000 -1.000000 1.000000
v -1.000000 1.000000 1.000000
v -1.000000 -1.000000 -1.000000
v -1.000000 1.000000 -1.000000
v 1.000000 -1.000000 1.000000
v 1.000000 1.000000 1.000000
v 1.000000 -1.000000 -1.000000
v 1.000000 1.000000 -1.000000
vt 0.007414 0.934718
vt 0.135098 1.187841
vt -0.006319 1.384142
vt -0.211702 1.114613
vt -0.417086 0.845083
vt -0.120269 0.681595
vt 0.176548 0.518107
vt 0.226531 0.754823
vt 0.276515 0.991540
vt 0.488239 0.779815
vt 0.513231 1.041523
vt 0.463247 0.518107
vt 0.749947 0.518107
vt 0.749947 0.804807
vt 0.749947 1.091506
vt 0.716490 0.139761
vt 0.905419 -0.049169
vt 1.094349 0.139760
vt 0.905420 0.328690
vt 0.716490 0.517619
vt 0.527561 0.328690
vt 0.338631 0.139761
vt 0.527561 -0.049169
vt 0.716490 -0.238098
vt 0.338631 -0.238098
vt 0.527561 -0.427028
vt 0.149702 -0.049169
vt -0.039227 -0.238098
vt 0.149702 -0.427028
vt 0.338631 -0.615957
vt 0.384569 1.270786
vt 0.634039 1.353732
vt 0.518132 1.615957
vt 0.255907 1.500049
vt -0.039227 0.139761
vt 0.149702 0.328690
vt -0.039227 0.517619
vt -0.228157 0.328690
vt -0.417086 0.139761
vt -0.228157 -0.049169
vn -1.0000 0.0000 0.0000
vn -0.7071 -0.7071 0.0000
vn -0.5773 -0.5773 0.5773
vn -0.7071 0.0000 0.7071
vn -0.5773 0.5773 0.5773
vn -0.7071 0.7071 0.0000
vn -0.5773 0.5773 -0.5773
vn -0.7071 0.0000 -0.7071
vn -0.5773 -0.5773 -0.5773
vn 0.0000 0.0000 -1.0000
vn 0.0000 -0.7071 -0.7071
vn 0.0000 0.7071 -0.7071
vn 0.5773 0.5773 -0.5773
vn 0.7071 0.0000 -0.7071
vn 0.5773 -0.5773 -0.5773
vn 1.0000 0.0000 0.0000
vn 0.7071 -0.7071 0.0000
vn 0.7071 0.7071 0.0000
vn 0.5773 0.5773 0.5773
vn 0.7071 0.0000 0.7071
vn 0.5773 -0.5773 0.5773
vn 0.0000 0.0000 1.0000
vn 0.0000 -0.7071 0.7071
vn 0.0000 0.7071 0.7071
vn 0.0000 -1.0000 0.0000
vn 0.0000 1.0000 0.0000
usemtl chatka_fundamenty
s 1
f 1/1/1 7/2/2 19/3/3 8/4/4
f 1/1/1 8/4/4 20/5/5 9/6/6
f 1/1/1 9/6/6 22/7/7 10/8/8
f 1/1/1 10/8/8 21/9/9 7/2/2
f 2/10/10 11/11/11 21/9/9 10/8/8
f 2/10/10 10/8/8 22/7/7 12/12/12
f 2/10/10 12/12/12 26/13/13 13/14/14
f 2/10/10 13/14/14 25/15/15 11/11/11
f 3/16/16 14/17/17 25/18/15 13/19/14
f 3/16/16 13/19/14 26/20/13 15/21/18
f 3/16/16 15/21/18 24/22/19 16/23/20
f 3/16/16 16/23/20 23/24/21 14/17/17
f 4/25/22 17/26/23 23/24/21 16/23/20
f 4/25/22 16/23/20 24/22/19 18/27/24
f 4/25/22 18/27/24 20/28/5 8/29/4
f 4/25/22 8/29/4 19/30/3 17/26/23
f 5/31/25 7/2/2 21/9/9 11/11/11
f 5/31/25 11/11/11 25/15/15 14/32/17
f 5/31/25 14/32/17 23/33/21 17/34/23
f 5/31/25 17/34/23 19/3/3 7/2/2
f 6/35/26 15/36/18 26/37/13 12/38/12
f 6/35/26 12/38/12 22/39/7 9/40/6
f 6/35/26 9/40/6 20/28/5 18/27/24
f 6/35/26 18/27/24 24/22/19 15/36/18
